<svg version="1.1" xmlns="http://www.w3.org/2000/svg" xmlns:xlink="http://www.w3.org/1999/xlink" width="446" height="425"><defs><clipPath id="KmPLRFNFpLTg"><path fill="none" stroke="none" d=" M 0 0 L 446 0 L 446 425 L 0 425 L 0 0 Z"/></clipPath></defs><g transform="scale(1,1)" clip-path="url(#KmPLRFNFpLTg)"><g transform="translate(-75,-75)"><rect fill="rgb(255,255,255)" stroke="none" x="0" y="0" width="892" height="622" fill-opacity="1"/><path fill="none" stroke="rgb(192,192,192)" paint-order="fill stroke markers" d=" M 2.5 0.5 L 2.5 622.5 M 2.5 0.5 L 2.5 622.5 M 52.5 0.5 L 52.5 622.5 M 102.5 0.5 L 102.5 622.5 M 152.5 0.5 L 152.5 622.5 M 252.5 0.5 L 252.5 622.5 M 302.5 0.5 L 302.5 622.5 M 352.5 0.5 L 352.5 622.5 M 402.5 0.5 L 402.5 622.5 M 452.5 0.5 L 452.5 622.5 M 502.5 0.5 L 502.5 622.5 M 552.5 0.5 L 552.5 622.5 M 602.5 0.5 L 602.5 622.5 M 652.5 0.5 L 652.5 622.5 M 702.5 0.5 L 702.5 622.5 M 752.5 0.5 L 752.5 622.5 M 802.5 0.5 L 802.5 622.5 M 852.5 0.5 L 852.5 622.5" stroke-opacity="1" stroke-linecap="round" stroke-linejoin="round" stroke-miterlimit="10"/><path fill="none" stroke="rgb(192,192,192)" paint-order="fill stroke markers" d=" M 12.5 0.5 L 12.5 622.5 M 22.5 0.5 L 22.5 622.5 M 32.5 0.5 L 32.5 622.5 M 42.5 0.5 L 42.5 622.5 M 62.5 0.5 L 62.5 622.5 M 72.5 0.5 L 72.5 622.5 M 82.5 0.5 L 82.5 622.5 M 92.5 0.5 L 92.5 622.5 M 112.5 0.5 L 112.5 622.5 M 122.5 0.5 L 122.5 622.5 M 132.5 0.5 L 132.5 622.5 M 142.5 0.5 L 142.5 622.5 M 162.5 0.5 L 162.5 622.5 M 172.5 0.5 L 172.5 622.5 M 182.5 0.5 L 182.5 622.5 M 192.5 0.5 L 192.5 622.5 M 212.5 0.5 L 212.5 622.5 M 222.5 0.5 L 222.5 622.5 M 232.5 0.5 L 232.5 622.5 M 242.5 0.5 L 242.5 622.5 M 262.5 0.5 L 262.5 622.5 M 272.5 0.5 L 272.5 622.5 M 282.5 0.5 L 282.5 622.5 M 292.5 0.5 L 292.5 622.5 M 312.5 0.5 L 312.5 622.5 M 322.5 0.5 L 322.5 622.5 M 332.5 0.5 L 332.5 622.5 M 342.5 0.5 L 342.5 622.5 M 362.5 0.5 L 362.5 622.5 M 372.5 0.5 L 372.5 622.5 M 382.5 0.5 L 382.5 622.5 M 392.5 0.5 L 392.5 622.5 M 411.5 0.5 L 411.5 622.5 M 421.5 0.5 L 421.5 622.5 M 431.5 0.5 L 431.5 622.5 M 441.5 0.5 L 441.5 622.5 M 461.5 0.5 L 461.5 622.5 M 471.5 0.5 L 471.5 622.5 M 481.5 0.5 L 481.5 622.5 M 491.5 0.5 L 491.5 622.5 M 511.5 0.5 L 511.5 622.5 M 522.5 0.5 L 522.5 622.5 M 532.5 0.5 L 532.5 622.5 M 542.5 0.5 L 542.5 622.5 M 562.5 0.5 L 562.5 622.5 M 572.5 0.5 L 572.5 622.5 M 582.5 0.5 L 582.5 622.5 M 592.5 0.5 L 592.5 622.5 M 612.5 0.5 L 612.5 622.5 M 622.5 0.5 L 622.5 622.5 M 632.5 0.5 L 632.5 622.5 M 642.5 0.5 L 642.5 622.5 M 662.5 0.5 L 662.5 622.5 M 672.5 0.5 L 672.5 622.5 M 682.5 0.5 L 682.5 622.5 M 692.5 0.5 L 692.5 622.5 M 712.5 0.5 L 712.5 622.5 M 722.5 0.5 L 722.5 622.5 M 732.5 0.5 L 732.5 622.5 M 742.5 0.5 L 742.5 622.5 M 762.5 0.5 L 762.5 622.5 M 772.5 0.5 L 772.5 622.5 M 782.5 0.5 L 782.5 622.5 M 792.5 0.5 L 792.5 622.5 M 812.5 0.5 L 812.5 622.5 M 821.5 0.5 L 821.5 622.5 M 831.5 0.5 L 831.5 622.5 M 841.5 0.5 L 841.5 622.5 M 861.5 0.5 L 861.5 622.5 M 871.5 0.5 L 871.5 622.5 M 881.5 0.5 L 881.5 622.5 M 891.5 0.5 L 891.5 622.5" stroke-opacity="0.23529411764705882" stroke-linecap="round" stroke-linejoin="round" stroke-miterlimit="10"/><path fill="none" stroke="rgb(192,192,192)" paint-order="fill stroke markers" d=" M 0.5 34.5 L 892.5 34.5 M 0.5 34.5 L 892.5 34.5 M 0.5 84.5 L 892.5 84.5 M 0.5 134.5 L 892.5 134.5 M 0.5 184.5 L 892.5 184.5 M 0.5 234.5 L 892.5 234.5 M 0.5 284.5 L 892.5 284.5 M 0.5 384.5 L 892.5 384.5 M 0.5 434.5 L 892.5 434.5 M 0.5 484.5 L 892.5 484.5 M 0.5 534.5 L 892.5 534.5 M 0.5 584.5 L 892.5 584.5" stroke-opacity="1" stroke-linecap="round" stroke-linejoin="round" stroke-miterlimit="10"/><path fill="none" stroke="rgb(192,192,192)" paint-order="fill stroke markers" d=" M 0.5 4.5 L 892.5 4.5 M 0.5 4.5 L 892.5 4.5 M 0.5 14.5 L 892.5 14.5 M 0.5 24.5 L 892.5 24.5 M 0.5 44.5 L 892.5 44.5 M 0.5 54.5 L 892.5 54.5 M 0.5 64.5 L 892.5 64.5 M 0.5 74.5 L 892.5 74.5 M 0.5 94.5 L 892.5 94.5 M 0.5 104.5 L 892.5 104.5 M 0.5 114.5 L 892.5 114.5 M 0.5 124.5 L 892.5 124.5 M 0.5 144.5 L 892.5 144.5 M 0.5 154.5 L 892.5 154.5 M 0.5 164.5 L 892.5 164.5 M 0.5 174.5 L 892.5 174.5 M 0.5 194.5 L 892.5 194.5 M 0.5 204.5 L 892.5 204.5 M 0.5 214.5 L 892.5 214.5 M 0.5 224.5 L 892.5 224.5 M 0.5 244.5 L 892.5 244.5 M 0.5 254.5 L 892.5 254.5 M 0.5 264.5 L 892.5 264.5 M 0.5 274.5 L 892.5 274.5 M 0.5 294.5 L 892.5 294.5 M 0.5 304.5 L 892.5 304.5 M 0.5 314.5 L 892.5 314.5 M 0.5 324.5 L 892.5 324.5 M 0.5 344.5 L 892.5 344.5 M 0.5 354.5 L 892.5 354.5 M 0.5 364.5 L 892.5 364.5 M 0.5 374.5 L 892.5 374.5 M 0.5 394.5 L 892.5 394.5 M 0.5 404.5 L 892.5 404.5 M 0.5 414.5 L 892.5 414.5 M 0.5 424.5 L 892.5 424.5 M 0.5 444.5 L 892.5 444.5 M 0.5 454.5 L 892.5 454.5 M 0.5 464.5 L 892.5 464.5 M 0.5 474.5 L 892.5 474.5 M 0.5 494.5 L 892.5 494.5 M 0.5 504.5 L 892.5 504.5 M 0.5 514.5 L 892.5 514.5 M 0.5 524.5 L 892.5 524.5 M 0.5 544.5 L 892.5 544.5 M 0.5 554.5 L 892.5 554.5 M 0.5 564.5 L 892.5 564.5 M 0.5 574.5 L 892.5 574.5 M 0.5 594.5 L 892.5 594.5 M 0.5 604.5 L 892.5 604.5 M 0.5 614.5 L 892.5 614.5" stroke-opacity="0.23529411764705882" stroke-linecap="round" stroke-linejoin="round" stroke-miterlimit="10"/><path fill="none" stroke="rgb(37,37,37)" paint-order="fill stroke markers" d=" M 202.5 2.5 L 202.5 622.5" stroke-opacity="1" stroke-miterlimit="10"/><path fill="none" stroke="rgb(37,37,37)" paint-order="fill stroke markers" d=" M 202.5 1.5 L 198.5 5.5" stroke-opacity="1" stroke-miterlimit="10"/><path fill="none" stroke="rgb(37,37,37)" paint-order="fill stroke markers" d=" M 202.5 1.5 L 206.5 5.5" stroke-opacity="1" stroke-miterlimit="10"/><path fill="none" stroke="rgb(37,37,37)" paint-order="fill stroke markers" d=" M 0.5 334.5 L 890.5 334.5" stroke-opacity="1" stroke-miterlimit="10"/><path fill="none" stroke="rgb(37,37,37)" paint-order="fill stroke markers" d=" M 891.5 334.5 L 887.5 330.5" stroke-opacity="1" stroke-miterlimit="10"/><path fill="none" stroke="rgb(37,37,37)" paint-order="fill stroke markers" d=" M 891.5 334.5 L 887.5 338.5" stroke-opacity="1" stroke-miterlimit="10"/><text fill="rgb(37,37,37)" stroke="none" font-family="geogebra-sans-serif, sans-serif" font-size="12px" font-style="normal" font-weight="normal" text-decoration="normal" x="47" y="350" text-anchor="start" dominant-baseline="alphabetic" fill-opacity="1">–3</text><text fill="none" stroke="rgb(255,255,255)" font-family="geogebra-sans-serif, sans-serif" font-size="12px" font-style="normal" font-weight="normal" text-decoration="normal" x="47" y="350" text-anchor="start" dominant-baseline="alphabetic" stroke-opacity="1" stroke-linejoin="bevel" stroke-miterlimit="10" stroke-width="3">–3</text><text fill="rgb(37,37,37)" stroke="none" font-family="geogebra-sans-serif, sans-serif" font-size="12px" font-style="normal" font-weight="normal" text-decoration="normal" x="47" y="350" text-anchor="start" dominant-baseline="alphabetic" fill-opacity="1">–3</text><text fill="rgb(37,37,37)" stroke="none" font-family="geogebra-sans-serif, sans-serif" font-size="12px" font-style="normal" font-weight="normal" text-decoration="normal" x="97" y="350" text-anchor="start" dominant-baseline="alphabetic" fill-opacity="1">–2</text><text fill="none" stroke="rgb(255,255,255)" font-family="geogebra-sans-serif, sans-serif" font-size="12px" font-style="normal" font-weight="normal" text-decoration="normal" x="97" y="350" text-anchor="start" dominant-baseline="alphabetic" stroke-opacity="1" stroke-linejoin="bevel" stroke-miterlimit="10" stroke-width="3">–2</text><text fill="rgb(37,37,37)" stroke="none" font-family="geogebra-sans-serif, sans-serif" font-size="12px" font-style="normal" font-weight="normal" text-decoration="normal" x="97" y="350" text-anchor="start" dominant-baseline="alphabetic" fill-opacity="1">–2</text><text fill="rgb(37,37,37)" stroke="none" font-family="geogebra-sans-serif, sans-serif" font-size="12px" font-style="normal" font-weight="normal" text-decoration="normal" x="147" y="350" text-anchor="start" dominant-baseline="alphabetic" fill-opacity="1">–1</text><text fill="none" stroke="rgb(255,255,255)" font-family="geogebra-sans-serif, sans-serif" font-size="12px" font-style="normal" font-weight="normal" text-decoration="normal" x="147" y="350" text-anchor="start" dominant-baseline="alphabetic" stroke-opacity="1" stroke-linejoin="bevel" stroke-miterlimit="10" stroke-width="3">–1</text><text fill="rgb(37,37,37)" stroke="none" font-family="geogebra-sans-serif, sans-serif" font-size="12px" font-style="normal" font-weight="normal" text-decoration="normal" x="147" y="350" text-anchor="start" dominant-baseline="alphabetic" fill-opacity="1">–1</text><text fill="rgb(37,37,37)" stroke="none" font-family="geogebra-sans-serif, sans-serif" font-size="12px" font-style="normal" font-weight="normal" text-decoration="normal" x="250" y="350" text-anchor="start" dominant-baseline="alphabetic" fill-opacity="1">1</text><text fill="none" stroke="rgb(255,255,255)" font-family="geogebra-sans-serif, sans-serif" font-size="12px" font-style="normal" font-weight="normal" text-decoration="normal" x="250" y="350" text-anchor="start" dominant-baseline="alphabetic" stroke-opacity="1" stroke-linejoin="bevel" stroke-miterlimit="10" stroke-width="3">1</text><text fill="rgb(37,37,37)" stroke="none" font-family="geogebra-sans-serif, sans-serif" font-size="12px" font-style="normal" font-weight="normal" text-decoration="normal" x="250" y="350" text-anchor="start" dominant-baseline="alphabetic" fill-opacity="1">1</text><text fill="rgb(37,37,37)" stroke="none" font-family="geogebra-sans-serif, sans-serif" font-size="12px" font-style="normal" font-weight="normal" text-decoration="normal" x="300" y="350" text-anchor="start" dominant-baseline="alphabetic" fill-opacity="1">2</text><text fill="none" stroke="rgb(255,255,255)" font-family="geogebra-sans-serif, sans-serif" font-size="12px" font-style="normal" font-weight="normal" text-decoration="normal" x="300" y="350" text-anchor="start" dominant-baseline="alphabetic" stroke-opacity="1" stroke-linejoin="bevel" stroke-miterlimit="10" stroke-width="3">2</text><text fill="rgb(37,37,37)" stroke="none" font-family="geogebra-sans-serif, sans-serif" font-size="12px" font-style="normal" font-weight="normal" text-decoration="normal" x="300" y="350" text-anchor="start" dominant-baseline="alphabetic" fill-opacity="1">2</text><text fill="rgb(37,37,37)" stroke="none" font-family="geogebra-sans-serif, sans-serif" font-size="12px" font-style="normal" font-weight="normal" text-decoration="normal" x="350" y="350" text-anchor="start" dominant-baseline="alphabetic" fill-opacity="1">3</text><text fill="none" stroke="rgb(255,255,255)" font-family="geogebra-sans-serif, sans-serif" font-size="12px" font-style="normal" font-weight="normal" text-decoration="normal" x="350" y="350" text-anchor="start" dominant-baseline="alphabetic" stroke-opacity="1" stroke-linejoin="bevel" stroke-miterlimit="10" stroke-width="3">3</text><text fill="rgb(37,37,37)" stroke="none" font-family="geogebra-sans-serif, sans-serif" font-size="12px" font-style="normal" font-weight="normal" text-decoration="normal" x="350" y="350" text-anchor="start" dominant-baseline="alphabetic" fill-opacity="1">3</text><text fill="rgb(37,37,37)" stroke="none" font-family="geogebra-sans-serif, sans-serif" font-size="12px" font-style="normal" font-weight="normal" text-decoration="normal" x="400" y="350" text-anchor="start" dominant-baseline="alphabetic" fill-opacity="1">4</text><text fill="none" stroke="rgb(255,255,255)" font-family="geogebra-sans-serif, sans-serif" font-size="12px" font-style="normal" font-weight="normal" text-decoration="normal" x="400" y="350" text-anchor="start" dominant-baseline="alphabetic" stroke-opacity="1" stroke-linejoin="bevel" stroke-miterlimit="10" stroke-width="3">4</text><text fill="rgb(37,37,37)" stroke="none" font-family="geogebra-sans-serif, sans-serif" font-size="12px" font-style="normal" font-weight="normal" text-decoration="normal" x="400" y="350" text-anchor="start" dominant-baseline="alphabetic" fill-opacity="1">4</text><text fill="rgb(37,37,37)" stroke="none" font-family="geogebra-sans-serif, sans-serif" font-size="12px" font-style="normal" font-weight="normal" text-decoration="normal" x="450" y="350" text-anchor="start" dominant-baseline="alphabetic" fill-opacity="1">5</text><text fill="none" stroke="rgb(255,255,255)" font-family="geogebra-sans-serif, sans-serif" font-size="12px" font-style="normal" font-weight="normal" text-decoration="normal" x="450" y="350" text-anchor="start" dominant-baseline="alphabetic" stroke-opacity="1" stroke-linejoin="bevel" stroke-miterlimit="10" stroke-width="3">5</text><text fill="rgb(37,37,37)" stroke="none" font-family="geogebra-sans-serif, sans-serif" font-size="12px" font-style="normal" font-weight="normal" text-decoration="normal" x="450" y="350" text-anchor="start" dominant-baseline="alphabetic" fill-opacity="1">5</text><text fill="rgb(37,37,37)" stroke="none" font-family="geogebra-sans-serif, sans-serif" font-size="12px" font-style="normal" font-weight="normal" text-decoration="normal" x="500" y="350" text-anchor="start" dominant-baseline="alphabetic" fill-opacity="1">6</text><text fill="none" stroke="rgb(255,255,255)" font-family="geogebra-sans-serif, sans-serif" font-size="12px" font-style="normal" font-weight="normal" text-decoration="normal" x="500" y="350" text-anchor="start" dominant-baseline="alphabetic" stroke-opacity="1" stroke-linejoin="bevel" stroke-miterlimit="10" stroke-width="3">6</text><text fill="rgb(37,37,37)" stroke="none" font-family="geogebra-sans-serif, sans-serif" font-size="12px" font-style="normal" font-weight="normal" text-decoration="normal" x="500" y="350" text-anchor="start" dominant-baseline="alphabetic" fill-opacity="1">6</text><text fill="rgb(37,37,37)" stroke="none" font-family="geogebra-sans-serif, sans-serif" font-size="12px" font-style="normal" font-weight="normal" text-decoration="normal" x="550" y="350" text-anchor="start" dominant-baseline="alphabetic" fill-opacity="1">7</text><text fill="none" stroke="rgb(255,255,255)" font-family="geogebra-sans-serif, sans-serif" font-size="12px" font-style="normal" font-weight="normal" text-decoration="normal" x="550" y="350" text-anchor="start" dominant-baseline="alphabetic" stroke-opacity="1" stroke-linejoin="bevel" stroke-miterlimit="10" stroke-width="3">7</text><text fill="rgb(37,37,37)" stroke="none" font-family="geogebra-sans-serif, sans-serif" font-size="12px" font-style="normal" font-weight="normal" text-decoration="normal" x="550" y="350" text-anchor="start" dominant-baseline="alphabetic" fill-opacity="1">7</text><text fill="rgb(37,37,37)" stroke="none" font-family="geogebra-sans-serif, sans-serif" font-size="12px" font-style="normal" font-weight="normal" text-decoration="normal" x="600" y="350" text-anchor="start" dominant-baseline="alphabetic" fill-opacity="1">8</text><text fill="none" stroke="rgb(255,255,255)" font-family="geogebra-sans-serif, sans-serif" font-size="12px" font-style="normal" font-weight="normal" text-decoration="normal" x="600" y="350" text-anchor="start" dominant-baseline="alphabetic" stroke-opacity="1" stroke-linejoin="bevel" stroke-miterlimit="10" stroke-width="3">8</text><text fill="rgb(37,37,37)" stroke="none" font-family="geogebra-sans-serif, sans-serif" font-size="12px" font-style="normal" font-weight="normal" text-decoration="normal" x="600" y="350" text-anchor="start" dominant-baseline="alphabetic" fill-opacity="1">8</text><text fill="rgb(37,37,37)" stroke="none" font-family="geogebra-sans-serif, sans-serif" font-size="12px" font-style="normal" font-weight="normal" text-decoration="normal" x="650" y="350" text-anchor="start" dominant-baseline="alphabetic" fill-opacity="1">9</text><text fill="none" stroke="rgb(255,255,255)" font-family="geogebra-sans-serif, sans-serif" font-size="12px" font-style="normal" font-weight="normal" text-decoration="normal" x="650" y="350" text-anchor="start" dominant-baseline="alphabetic" stroke-opacity="1" stroke-linejoin="bevel" stroke-miterlimit="10" stroke-width="3">9</text><text fill="rgb(37,37,37)" stroke="none" font-family="geogebra-sans-serif, sans-serif" font-size="12px" font-style="normal" font-weight="normal" text-decoration="normal" x="650" y="350" text-anchor="start" dominant-baseline="alphabetic" fill-opacity="1">9</text><text fill="rgb(37,37,37)" stroke="none" font-family="geogebra-sans-serif, sans-serif" font-size="12px" font-style="normal" font-weight="normal" text-decoration="normal" x="697" y="350" text-anchor="start" dominant-baseline="alphabetic" fill-opacity="1">10</text><text fill="none" stroke="rgb(255,255,255)" font-family="geogebra-sans-serif, sans-serif" font-size="12px" font-style="normal" font-weight="normal" text-decoration="normal" x="697" y="350" text-anchor="start" dominant-baseline="alphabetic" stroke-opacity="1" stroke-linejoin="bevel" stroke-miterlimit="10" stroke-width="3">10</text><text fill="rgb(37,37,37)" stroke="none" font-family="geogebra-sans-serif, sans-serif" font-size="12px" font-style="normal" font-weight="normal" text-decoration="normal" x="697" y="350" text-anchor="start" dominant-baseline="alphabetic" fill-opacity="1">10</text><text fill="rgb(37,37,37)" stroke="none" font-family="geogebra-sans-serif, sans-serif" font-size="12px" font-style="normal" font-weight="normal" text-decoration="normal" x="747" y="350" text-anchor="start" dominant-baseline="alphabetic" fill-opacity="1">11</text><text fill="none" stroke="rgb(255,255,255)" font-family="geogebra-sans-serif, sans-serif" font-size="12px" font-style="normal" font-weight="normal" text-decoration="normal" x="747" y="350" text-anchor="start" dominant-baseline="alphabetic" stroke-opacity="1" stroke-linejoin="bevel" stroke-miterlimit="10" stroke-width="3">11</text><text fill="rgb(37,37,37)" stroke="none" font-family="geogebra-sans-serif, sans-serif" font-size="12px" font-style="normal" font-weight="normal" text-decoration="normal" x="747" y="350" text-anchor="start" dominant-baseline="alphabetic" fill-opacity="1">11</text><text fill="rgb(37,37,37)" stroke="none" font-family="geogebra-sans-serif, sans-serif" font-size="12px" font-style="normal" font-weight="normal" text-decoration="normal" x="797" y="350" text-anchor="start" dominant-baseline="alphabetic" fill-opacity="1">12</text><text fill="none" stroke="rgb(255,255,255)" font-family="geogebra-sans-serif, sans-serif" font-size="12px" font-style="normal" font-weight="normal" text-decoration="normal" x="797" y="350" text-anchor="start" dominant-baseline="alphabetic" stroke-opacity="1" stroke-linejoin="bevel" stroke-miterlimit="10" stroke-width="3">12</text><text fill="rgb(37,37,37)" stroke="none" font-family="geogebra-sans-serif, sans-serif" font-size="12px" font-style="normal" font-weight="normal" text-decoration="normal" x="797" y="350" text-anchor="start" dominant-baseline="alphabetic" fill-opacity="1">12</text><text fill="rgb(37,37,37)" stroke="none" font-family="geogebra-sans-serif, sans-serif" font-size="12px" font-style="normal" font-weight="normal" text-decoration="normal" x="847" y="350" text-anchor="start" dominant-baseline="alphabetic" fill-opacity="1">13</text><text fill="none" stroke="rgb(255,255,255)" font-family="geogebra-sans-serif, sans-serif" font-size="12px" font-style="normal" font-weight="normal" text-decoration="normal" x="847" y="350" text-anchor="start" dominant-baseline="alphabetic" stroke-opacity="1" stroke-linejoin="bevel" stroke-miterlimit="10" stroke-width="3">13</text><text fill="rgb(37,37,37)" stroke="none" font-family="geogebra-sans-serif, sans-serif" font-size="12px" font-style="normal" font-weight="normal" text-decoration="normal" x="847" y="350" text-anchor="start" dominant-baseline="alphabetic" fill-opacity="1">13</text><text fill="rgb(37,37,37)" stroke="none" font-family="geogebra-sans-serif, sans-serif" font-size="12px" font-style="normal" font-weight="normal" text-decoration="normal" x="181" y="589" text-anchor="start" dominant-baseline="alphabetic" fill-opacity="1">–5</text><text fill="none" stroke="rgb(255,255,255)" font-family="geogebra-sans-serif, sans-serif" font-size="12px" font-style="normal" font-weight="normal" text-decoration="normal" x="181" y="589" text-anchor="start" dominant-baseline="alphabetic" stroke-opacity="1" stroke-linejoin="bevel" stroke-miterlimit="10" stroke-width="3">–5</text><text fill="rgb(37,37,37)" stroke="none" font-family="geogebra-sans-serif, sans-serif" font-size="12px" font-style="normal" font-weight="normal" text-decoration="normal" x="181" y="589" text-anchor="start" dominant-baseline="alphabetic" fill-opacity="1">–5</text><text fill="rgb(37,37,37)" stroke="none" font-family="geogebra-sans-serif, sans-serif" font-size="12px" font-style="normal" font-weight="normal" text-decoration="normal" x="181" y="539" text-anchor="start" dominant-baseline="alphabetic" fill-opacity="1">–4</text><text fill="none" stroke="rgb(255,255,255)" font-family="geogebra-sans-serif, sans-serif" font-size="12px" font-style="normal" font-weight="normal" text-decoration="normal" x="181" y="539" text-anchor="start" dominant-baseline="alphabetic" stroke-opacity="1" stroke-linejoin="bevel" stroke-miterlimit="10" stroke-width="3">–4</text><text fill="rgb(37,37,37)" stroke="none" font-family="geogebra-sans-serif, sans-serif" font-size="12px" font-style="normal" font-weight="normal" text-decoration="normal" x="181" y="539" text-anchor="start" dominant-baseline="alphabetic" fill-opacity="1">–4</text><text fill="rgb(37,37,37)" stroke="none" font-family="geogebra-sans-serif, sans-serif" font-size="12px" font-style="normal" font-weight="normal" text-decoration="normal" x="181" y="489" text-anchor="start" dominant-baseline="alphabetic" fill-opacity="1">–3</text><text fill="none" stroke="rgb(255,255,255)" font-family="geogebra-sans-serif, sans-serif" font-size="12px" font-style="normal" font-weight="normal" text-decoration="normal" x="181" y="489" text-anchor="start" dominant-baseline="alphabetic" stroke-opacity="1" stroke-linejoin="bevel" stroke-miterlimit="10" stroke-width="3">–3</text><text fill="rgb(37,37,37)" stroke="none" font-family="geogebra-sans-serif, sans-serif" font-size="12px" font-style="normal" font-weight="normal" text-decoration="normal" x="181" y="489" text-anchor="start" dominant-baseline="alphabetic" fill-opacity="1">–3</text><text fill="rgb(37,37,37)" stroke="none" font-family="geogebra-sans-serif, sans-serif" font-size="12px" font-style="normal" font-weight="normal" text-decoration="normal" x="181" y="439" text-anchor="start" dominant-baseline="alphabetic" fill-opacity="1">–2</text><text fill="none" stroke="rgb(255,255,255)" font-family="geogebra-sans-serif, sans-serif" font-size="12px" font-style="normal" font-weight="normal" text-decoration="normal" x="181" y="439" text-anchor="start" dominant-baseline="alphabetic" stroke-opacity="1" stroke-linejoin="bevel" stroke-miterlimit="10" stroke-width="3">–2</text><text fill="rgb(37,37,37)" stroke="none" font-family="geogebra-sans-serif, sans-serif" font-size="12px" font-style="normal" font-weight="normal" text-decoration="normal" x="181" y="439" text-anchor="start" dominant-baseline="alphabetic" fill-opacity="1">–2</text><text fill="rgb(37,37,37)" stroke="none" font-family="geogebra-sans-serif, sans-serif" font-size="12px" font-style="normal" font-weight="normal" text-decoration="normal" x="181" y="389" text-anchor="start" dominant-baseline="alphabetic" fill-opacity="1">–1</text><text fill="none" stroke="rgb(255,255,255)" font-family="geogebra-sans-serif, sans-serif" font-size="12px" font-style="normal" font-weight="normal" text-decoration="normal" x="181" y="389" text-anchor="start" dominant-baseline="alphabetic" stroke-opacity="1" stroke-linejoin="bevel" stroke-miterlimit="10" stroke-width="3">–1</text><text fill="rgb(37,37,37)" stroke="none" font-family="geogebra-sans-serif, sans-serif" font-size="12px" font-style="normal" font-weight="normal" text-decoration="normal" x="181" y="389" text-anchor="start" dominant-baseline="alphabetic" fill-opacity="1">–1</text><text fill="rgb(37,37,37)" stroke="none" font-family="geogebra-sans-serif, sans-serif" font-size="12px" font-style="normal" font-weight="normal" text-decoration="normal" x="188" y="289" text-anchor="start" dominant-baseline="alphabetic" fill-opacity="1">1</text><text fill="none" stroke="rgb(255,255,255)" font-family="geogebra-sans-serif, sans-serif" font-size="12px" font-style="normal" font-weight="normal" text-decoration="normal" x="188" y="289" text-anchor="start" dominant-baseline="alphabetic" stroke-opacity="1" stroke-linejoin="bevel" stroke-miterlimit="10" stroke-width="3">1</text><text fill="rgb(37,37,37)" stroke="none" font-family="geogebra-sans-serif, sans-serif" font-size="12px" font-style="normal" font-weight="normal" text-decoration="normal" x="188" y="289" text-anchor="start" dominant-baseline="alphabetic" fill-opacity="1">1</text><text fill="rgb(37,37,37)" stroke="none" font-family="geogebra-sans-serif, sans-serif" font-size="12px" font-style="normal" font-weight="normal" text-decoration="normal" x="188" y="239" text-anchor="start" dominant-baseline="alphabetic" fill-opacity="1">2</text><text fill="none" stroke="rgb(255,255,255)" font-family="geogebra-sans-serif, sans-serif" font-size="12px" font-style="normal" font-weight="normal" text-decoration="normal" x="188" y="239" text-anchor="start" dominant-baseline="alphabetic" stroke-opacity="1" stroke-linejoin="bevel" stroke-miterlimit="10" stroke-width="3">2</text><text fill="rgb(37,37,37)" stroke="none" font-family="geogebra-sans-serif, sans-serif" font-size="12px" font-style="normal" font-weight="normal" text-decoration="normal" x="188" y="239" text-anchor="start" dominant-baseline="alphabetic" fill-opacity="1">2</text><text fill="rgb(37,37,37)" stroke="none" font-family="geogebra-sans-serif, sans-serif" font-size="12px" font-style="normal" font-weight="normal" text-decoration="normal" x="188" y="189" text-anchor="start" dominant-baseline="alphabetic" fill-opacity="1">3</text><text fill="none" stroke="rgb(255,255,255)" font-family="geogebra-sans-serif, sans-serif" font-size="12px" font-style="normal" font-weight="normal" text-decoration="normal" x="188" y="189" text-anchor="start" dominant-baseline="alphabetic" stroke-opacity="1" stroke-linejoin="bevel" stroke-miterlimit="10" stroke-width="3">3</text><text fill="rgb(37,37,37)" stroke="none" font-family="geogebra-sans-serif, sans-serif" font-size="12px" font-style="normal" font-weight="normal" text-decoration="normal" x="188" y="189" text-anchor="start" dominant-baseline="alphabetic" fill-opacity="1">3</text><text fill="rgb(37,37,37)" stroke="none" font-family="geogebra-sans-serif, sans-serif" font-size="12px" font-style="normal" font-weight="normal" text-decoration="normal" x="188" y="139" text-anchor="start" dominant-baseline="alphabetic" fill-opacity="1">4</text><text fill="none" stroke="rgb(255,255,255)" font-family="geogebra-sans-serif, sans-serif" font-size="12px" font-style="normal" font-weight="normal" text-decoration="normal" x="188" y="139" text-anchor="start" dominant-baseline="alphabetic" stroke-opacity="1" stroke-linejoin="bevel" stroke-miterlimit="10" stroke-width="3">4</text><text fill="rgb(37,37,37)" stroke="none" font-family="geogebra-sans-serif, sans-serif" font-size="12px" font-style="normal" font-weight="normal" text-decoration="normal" x="188" y="139" text-anchor="start" dominant-baseline="alphabetic" fill-opacity="1">4</text><text fill="rgb(37,37,37)" stroke="none" font-family="geogebra-sans-serif, sans-serif" font-size="12px" font-style="normal" font-weight="normal" text-decoration="normal" x="188" y="89" text-anchor="start" dominant-baseline="alphabetic" fill-opacity="1">5</text><text fill="none" stroke="rgb(255,255,255)" font-family="geogebra-sans-serif, sans-serif" font-size="12px" font-style="normal" font-weight="normal" text-decoration="normal" x="188" y="89" text-anchor="start" dominant-baseline="alphabetic" stroke-opacity="1" stroke-linejoin="bevel" stroke-miterlimit="10" stroke-width="3">5</text><text fill="rgb(37,37,37)" stroke="none" font-family="geogebra-sans-serif, sans-serif" font-size="12px" font-style="normal" font-weight="normal" text-decoration="normal" x="188" y="89" text-anchor="start" dominant-baseline="alphabetic" fill-opacity="1">5</text><text fill="rgb(37,37,37)" stroke="none" font-family="geogebra-sans-serif, sans-serif" font-size="12px" font-style="normal" font-weight="normal" text-decoration="normal" x="188" y="39" text-anchor="start" dominant-baseline="alphabetic" fill-opacity="1">6</text><text fill="none" stroke="rgb(255,255,255)" font-family="geogebra-sans-serif, sans-serif" font-size="12px" font-style="normal" font-weight="normal" text-decoration="normal" x="188" y="39" text-anchor="start" dominant-baseline="alphabetic" stroke-opacity="1" stroke-linejoin="bevel" stroke-miterlimit="10" stroke-width="3">6</text><text fill="rgb(37,37,37)" stroke="none" font-family="geogebra-sans-serif, sans-serif" font-size="12px" font-style="normal" font-weight="normal" text-decoration="normal" x="188" y="39" text-anchor="start" dominant-baseline="alphabetic" fill-opacity="1">6</text><text fill="rgb(37,37,37)" stroke="none" font-family="geogebra-sans-serif, sans-serif" font-size="12px" font-style="normal" font-weight="normal" text-decoration="normal" x="188" y="350" text-anchor="start" dominant-baseline="alphabetic" fill-opacity="1">0</text><text fill="none" stroke="rgb(255,255,255)" font-family="geogebra-sans-serif, sans-serif" font-size="12px" font-style="normal" font-weight="normal" text-decoration="normal" x="188" y="350" text-anchor="start" dominant-baseline="alphabetic" stroke-opacity="1" stroke-linejoin="bevel" stroke-miterlimit="10" stroke-width="3">0</text><text fill="rgb(37,37,37)" stroke="none" font-family="geogebra-sans-serif, sans-serif" font-size="12px" font-style="normal" font-weight="normal" text-decoration="normal" x="188" y="350" text-anchor="start" dominant-baseline="alphabetic" fill-opacity="1">0</text><path fill="none" stroke="rgb(0,100,0)" paint-order="fill stroke markers" d=" M 104.53125 -5.4390722656251 L 106.27343750000001 1.4111273193359466 L 108.01562500000001 8.200622558593693 L 109.75781250000003 14.92941345214848 L 111.50000000000001 21.597499999999968 L 113.24218750000001 28.204882202148383 L 114.98437500000003 34.751560058593725 L 116.72656250000001 41.23753356933594 L 118.46875000000003 47.66280273437502 L 120.21093750000001 54.02736755371092 L 121.95312500000001 60.33122802734374 L 123.69531250000003 66.57438415527344 L 125.43750000000001 72.75683593749994 L 127.17968750000001 78.87858337402338 L 128.92187500000003 84.93962646484374 L 130.6640625 90.93996520996089 L 132.40625 96.87959960937496 L 134.1484375 102.75852966308594 L 135.890625 108.5767553710937 L 137.63281250000003 114.33427673339841 L 139.37500000000003 120.03109375 L 141.1171875 125.66720642089837 L 142.85937500000003 131.24261474609378 L 144.6015625 136.75731872558592 L 146.34375000000003 142.211318359375 L 148.08593750000003 147.60461364746092 L 149.828125 152.9372045898437 L 151.57031250000003 158.20909118652344 L 153.31250000000003 163.42027343749996 L 155.0546875 168.57075134277338 L 156.79687500000003 173.66052490234372 L 160.28125 183.65795898437491 L 163.765625 193.4125756835937 L 167.25000000000003 202.92437499999997 L 170.73437500000003 212.1933569335937 L 174.21875000000003 221.21952148437498 L 177.703125 230.0028686523437 L 181.18750000000003 238.54339843749995 L 184.67187500000003 246.84111083984374 L 188.15625 254.89600585937495 L 191.640625 262.7080834960937 L 195.12500000000003 270.27734374999994 L 198.60937500000003 277.6037866210937 L 202.09375000000003 284.687412109375 L 205.57812500000003 291.5282202148437 L 209.0625 298.1262109374999 L 212.54687500000003 304.4813842773437 L 216.03125 310.59374023437493 L 219.51562500000003 316.4632788085937 L 223.00000000000003 322.0899999999999 L 226.484375 327.47390380859366 L 229.96875000000003 332.61499023437494 L 233.45312500000003 337.5132592773437 L 236.93750000000006 342.16871093749995 L 240.42187500000003 346.5813452148437 L 243.90625 350.75116210937495 L 247.39062500000006 354.6781616210937 L 250.87500000000003 358.3623437499999 L 254.359375 361.8037084960937 L 257.84375000000006 365.00225585937494 L 261.328125 367.9579858398437 L 264.8125 370.6708984374999 L 268.296875 373.1409936523437 L 271.78125 375.36827148437493 L 275.26562500000006 377.3527319335937 L 278.75 379.09437499999996 L 282.234375 380.5932006835937 L 285.71875000000006 381.8492089843749 L 289.203125 382.86239990234367 L 292.68750000000006 383.63277343749996 L 296.171875 384.1603295898437 L 299.65625 384.44506835937494 L 303.14062500000006 384.4869897460937 L 306.625 384.2860937499999 L 310.109375 383.84238037109367 L 313.59375000000006 383.1558496093749 L 317.078125 382.22650146484364 L 320.5625 381.0543359374999 L 324.046875 379.63935302734365 L 327.53125 377.98155273437493 L 331.01562500000006 376.08093505859364 L 334.5 373.93749999999994 L 337.984375 371.5512475585937 L 341.46875 368.9221777343749 L 344.953125 366.0502905273437 L 348.43750000000006 362.9355859374999 L 351.921875 359.57806396484364 L 355.40625 355.97772460937495 L 358.89062500000006 352.1345678710937 L 362.375 348.04859374999995 L 365.859375 343.71980224609365 L 369.34375 339.1481933593749 L 372.828125 334.33376708984366 L 376.3125 329.2765234374999 L 379.796875 323.97646240234366 L 383.28125 318.43358398437493 L 386.76562500000006 312.64788818359364 L 390.25 306.6193749999999 L 393.734375 300.3480444335937 L 397.21875 293.83389648437486 L 400.703125 287.07693115234366 L 404.18750000000006 280.0771484374999 L 407.671875 272.83454833984376 L 411.15625 265.34913085937495 L 414.64062500000006 257.6208959960936 L 418.125 249.64984374999997 L 421.609375 241.43597412109375 L 425.09375000000006 232.97928710937487 L 428.57812500000006 224.27978271484358 L 432.0625 215.3374609375 L 435.546875 206.15232177734362 L 439.03125000000006 196.7243652343748 L 442.515625 187.05359130859372 L 446 177.13999999999993 L 447.74218750000006 172.0921478271483 L 449.48437500000006 166.98359130859353 L 451.2265625000001 161.8143304443357 L 452.96875 156.584365234375 L 454.7109375 151.29369567871086 L 456.453125 145.94232177734364 L 458.1953125 140.53024353027328 L 459.9375 135.0574609374998 L 461.6796875000001 129.52397399902318 L 463.421875 123.92978271484381 L 465.1640625 118.27488708496091 L 466.90625 112.5592871093749 L 468.6484375 106.78298278808583 L 470.390625 100.94597412109357 L 472.1328125000001 95.04826110839824 L 473.8750000000001 89.08984374999977 L 475.6171875 83.07072204589846 L 477.359375 76.99089599609374 L 479.1015625 70.85036560058586 L 480.84375 64.6491308593749 L 482.5859375000001 58.38719177246077 L 484.3281250000001 52.0645483398435 L 486.0703125 45.68120056152338 L 487.8125 39.23714843749997 L 489.5546875 32.73239196777331 L 491.296875 26.16693115234358 L 493.0390625 19.540765991210662 L 494.7812500000001 12.85389648437473 L 496.5234375 6.106322631836065 L 498.265625 -0.7019555664061841 L 500.0078125 -7.570938110351619" stroke-opacity="0.6980392156862745" stroke-linecap="round" stroke-linejoin="round" stroke-miterlimit="10" stroke-width="2.5"/><text fill="rgb(0,100,0)" stroke="none" font-family="geogebra-sans-serif, sans-serif" font-size="16px" font-style="normal" font-weight="normal" text-decoration="normal" x="106" y="24" text-anchor="start" dominant-baseline="alphabetic" fill-opacity="1">f</text><text fill="none" stroke="rgb(255,255,255)" font-family="geogebra-sans-serif, sans-serif" font-size="16px" font-style="normal" font-weight="normal" text-decoration="normal" x="106" y="24" text-anchor="start" dominant-baseline="alphabetic" stroke-opacity="1" stroke-linejoin="bevel" stroke-miterlimit="10" stroke-width="3">f</text><text fill="rgb(0,100,0)" stroke="none" font-family="geogebra-sans-serif, sans-serif" font-size="16px" font-style="normal" font-weight="normal" text-decoration="normal" x="106" y="24" text-anchor="start" dominant-baseline="alphabetic" fill-opacity="1">f</text></g></g></svg>